# xmcd CD database file
#
# Track frame offsets:
#	150
#	10363
#	24288
#	36003
#	42733
#	55001
#	74588
#	80788
#	85676
#	96333
#	105266
#	114851
#	124501
#	134768
#	142866
#	147271
#	158458
#	170751
#	177429
#	185383
#	194618
#	207523
#
# Disc length: 2844 seconds
#
# Revision: 0
# Processed by: cddbd v1.4PL0 Copyright (c) Steve Scherf et al.
# Submitted via: CDex 1.40Release
#
DISCID=350b1a16
DTITLE=Rhubarb Red and His Rubes - Les Paul's Country Rootes
DYEAR=1900
DGENRE=Country
TTITLE0=Midnight Special
TTITLE1=Froggie Went A Courtin'
TTITLE2=Rockin' Alone (In An Old Rockin' Chair)
TTITLE3=Bully Of The Town
TTITLE4=The Convict And The Rose
TTITLE5=Barbara Allen
TTITLE6=In The Blue Hills Of Virginia
TTITLE7=Ten O'Clock Reel
TTITLE8=Puttin' On The Style
TTITLE9=I Never See Maggie Alone
TTITLE10=The Old Spinning Wheel
TTITLE11=Bill Bailey
TTITLE12=Take Them Mountains Out Of My Way
TTITLE13=The Dying Hobo
TTITLE14=Firecracker Rag
TTITLE15=Jesse James
TTITLE16=Swapping Song
TTITLE17=Little Mother Of The Hills
TTITLE18=A Picture On The Wall
TTITLE19=Blue Ridge Mountain Blues
TTITLE20=Hand Me Down My Walking Cane
TTITLE21=Turn Your Radio On
EXTD=ID3G: 2
EXTT0=
EXTT1=
EXTT2=
EXTT3=
EXTT4=
EXTT5=
EXTT6=
EXTT7=
EXTT8=
EXTT9=
EXTT10=
EXTT11=
EXTT12=
EXTT13=
EXTT14=
EXTT15=
EXTT16=
EXTT17=
EXTT18=
EXTT19=
EXTT20=
EXTT21=
PLAYORDER=
